<svg id="レイヤー_1" data-name="レイヤー 1" xmlns="http://www.w3.org/2000/svg" viewBox="0 0 800 800"><defs><style>.cls-1{fill:#fff;}.cls-2{fill:none;stroke:#000;stroke-miterlimit:10;stroke-width:40px;}</style></defs><circle class="cls-1" cx="400" cy="400" r="400"/><path d="M265.92,427.25v20.43H195.33V342h23.79v85.22Z"/><path d="M381.78,394.78a65.07,65.07,0,0,1-4,23.86,49.15,49.15,0,0,1-11.05,17.23A45.52,45.52,0,0,1,350,446.31a60.66,60.66,0,0,1-20.81,3.51,59,59,0,0,1-20.43-3.51A46.94,46.94,0,0,1,292,435.87a48.79,48.79,0,0,1-11.28-17.23,63.8,63.8,0,0,1-4.12-23.86q0-13.57,4.27-23.86a50.65,50.65,0,0,1,11.51-17.3,47.17,47.17,0,0,1,16.77-10.52,57.51,57.51,0,0,1,20.05-3.51,59,59,0,0,1,20.42,3.51,46.31,46.31,0,0,1,16.77,10.52,49.61,49.61,0,0,1,11.29,17.3A64,64,0,0,1,381.78,394.78Zm-80.65,0a48,48,0,0,0,1.91,14,31.91,31.91,0,0,0,5.49,10.75,24.25,24.25,0,0,0,8.76,6.94,30,30,0,0,0,23.71,0,24,24,0,0,0,8.84-6.94,31.91,31.91,0,0,0,5.49-10.75,48,48,0,0,0,1.91-14,48.82,48.82,0,0,0-1.91-14.1,31.94,31.94,0,0,0-5.49-10.83,24.1,24.1,0,0,0-8.84-6.93,27.72,27.72,0,0,0-11.81-2.44,26.89,26.89,0,0,0-11.9,2.51,25.22,25.22,0,0,0-8.76,7A31.94,31.94,0,0,0,303,380.83,48.26,48.26,0,0,0,301.13,394.78Z"/><path d="M453.13,360.32q-16.62,0-24,9.23t-7.4,25.23a50.65,50.65,0,0,0,1.83,14.1,31,31,0,0,0,5.49,10.9,24.75,24.75,0,0,0,9.15,7.09A30.44,30.44,0,0,0,451,429.39q4,0,6.78-.16a31.24,31.24,0,0,0,5-.61V391.88h23.79v52.29a89.28,89.28,0,0,1-13.72,3.59,120.69,120.69,0,0,1-23.33,1.9A60.56,60.56,0,0,1,427.9,446a45,45,0,0,1-16.54-10.67,47.44,47.44,0,0,1-10.6-17.23A67.6,67.6,0,0,1,397,394.78a62.55,62.55,0,0,1,4.11-23.48A50.68,50.68,0,0,1,412.42,354a47.51,47.51,0,0,1,16.85-10.75,57.91,57.91,0,0,1,20.66-3.66,83.64,83.64,0,0,1,13.49,1,86.11,86.11,0,0,1,10.37,2.29,47.26,47.26,0,0,1,7.16,2.67q2.82,1.36,4,2.13l-6.86,19.06a61.91,61.91,0,0,0-11.2-4.5A47.7,47.7,0,0,0,453.13,360.32Z"/><path d="M609.24,394.78a65.07,65.07,0,0,1-4,23.86,49.15,49.15,0,0,1-11.05,17.23,45.52,45.52,0,0,1-16.69,10.44,60.66,60.66,0,0,1-20.81,3.51,59,59,0,0,1-20.43-3.51,46.94,46.94,0,0,1-16.77-10.44,48.79,48.79,0,0,1-11.28-17.23,63.8,63.8,0,0,1-4.12-23.86q0-13.57,4.27-23.86a50.65,50.65,0,0,1,11.51-17.3A47.17,47.17,0,0,1,536.6,343.1a57.51,57.51,0,0,1,20-3.51,59,59,0,0,1,20.42,3.51,46.31,46.31,0,0,1,16.77,10.52,49.45,49.45,0,0,1,11.28,17.3A63.8,63.8,0,0,1,609.24,394.78Zm-80.65,0a48,48,0,0,0,1.91,14A31.91,31.91,0,0,0,536,419.55a24.17,24.17,0,0,0,8.76,6.94,30,30,0,0,0,23.71,0,24,24,0,0,0,8.84-6.94,31.91,31.91,0,0,0,5.49-10.75,48,48,0,0,0,1.91-14,48.82,48.82,0,0,0-1.91-14.1,31.94,31.94,0,0,0-5.49-10.83,24.1,24.1,0,0,0-8.84-6.93,27.72,27.72,0,0,0-11.81-2.44,26.89,26.89,0,0,0-11.9,2.51,25.13,25.13,0,0,0-8.76,7,31.94,31.94,0,0,0-5.49,10.83A48.26,48.26,0,0,0,528.59,394.78Z"/><rect class="cls-2" x="138.47" y="138.47" width="523.06" height="523.06" transform="translate(-165.69 400) rotate(-45)"/><rect class="cls-2" x="138.47" y="138.47" width="523.06" height="523.06"/><rect class="cls-2" x="138.47" y="138.47" width="523.06" height="523.06" transform="translate(-122.63 183.52) rotate(-22.5)"/><rect class="cls-2" x="138.47" y="138.47" width="523.06" height="523.06" transform="translate(183.52 -122.63) rotate(22.5)"/></svg>