<svg id="レイヤー_1" data-name="レイヤー 1" xmlns="http://www.w3.org/2000/svg" viewBox="0 0 448.01 448.02"><defs><style>.cls-1{fill:#3a3a3a;}</style></defs><path class="cls-1" d="M439.8,200.5c-7.7-30.9-22.3-54.2-53.4-54.2H346.3v47.4c0,36.8-31.2,67.8-66.8,67.8H172.7c-29.2,0-53.4,25-53.4,54.3V417.6c0,29,25.2,46,53.4,54.3,33.8,9.9,66.3,11.7,106.8,0,26.9-7.8,53.4-23.5,53.4-54.3V376.9H226.2V363.3H386.4c31.1,0,42.6-21.7,53.4-54.2,11.2-33.5,10.7-65.7,0-108.6ZM286.2,404a20.35,20.35,0,1,1-20.1,20.3A20.21,20.21,0,0,1,286.2,404ZM167.8,248.1H274.6c29.7,0,53.4-24.5,53.4-54.3V91.9c0-29-24.4-50.7-53.4-55.6-35.8-5.9-74.7-5.6-106.8.1-45.2,8-53.4,24.7-53.4,55.6v40.7H221.3v13.6H74.3C43.2,146.3,16,165,7.5,200.5c-9.8,40.7-10.2,66.1,0,108.6,7.6,31.6,25.7,54.2,56.8,54.2H101V314.5c0-35.3,30.5-66.4,66.8-66.4Zm-6.7-142.6a20.35,20.35,0,1,1,20.1-20.3A20.21,20.21,0,0,1,161.1,105.5Z" transform="translate(0 -32)"/></svg>